<svg width="2085" height="2085" xmlns="http://www.w3.org/2000/svg" xmlns:xlink="http://www.w3.org/1999/xlink" xml:space="preserve" overflow="hidden"><defs><clipPath id="clip0"><rect x="492" y="133" width="2085" height="2085"/></clipPath></defs><g clip-path="url(#clip0)" transform="translate(-492 -133)"><path d="M532 1175.5C532 621.834 980.835 173 1534.5 173 2088.17 173 2537 621.834 2537 1175.5 2537 1729.17 2088.17 2178 1534.5 2178 980.835 2178 532 1729.17 532 1175.5Z" fill="#D9D9D9" fill-rule="evenodd"/><path d="M733.837 1731.5 1837.72 1749.83 1848.72 1588.5 2424.5 1588.5 2417.17 1639.83 2376.82 1731.5 2252.13 1892.83 2035.76 2050.5 1841.39 2131.17 1632.35 2182.5 1313.28 2149.5 968.549 2002.83 785.18 1845.17 719.167 1746.17 715.5 1727.83 733.837 1731.5Z" stroke="#2F528F" stroke-width="4.58333" stroke-miterlimit="8" fill-rule="evenodd"/><path d="M1735.06 1511.58 1735.06 1338.74 1892.59 1223.52 2086.47 1175 2207.65 1193.19 2350.03 1235.65 2437.88 1323.58 2450 1551 1729 1551 1735.06 1511.58Z" fill="#FFFFFF" fill-rule="evenodd"/><path d="M1898.5 934.5C1898.5 831.775 1981.78 748.5 2084.5 748.5 2187.22 748.5 2270.5 831.775 2270.5 934.5 2270.5 1037.22 2187.22 1120.5 2084.5 1120.5 1981.78 1120.5 1898.5 1037.22 1898.5 934.5Z" stroke="#2F528F" stroke-width="4.58333" stroke-miterlimit="8" fill="#FFFFFF" fill-rule="evenodd"/><path d="M2086.5 771.75C2176.38 771.75 2249.25 844.615 2249.25 934.5 2249.25 1024.38 2176.38 1097.25 2086.5 1097.25 1996.62 1097.25 1923.75 1024.38 1923.75 934.5 1923.84 844.653 1996.65 771.839 2086.5 771.75M2086.5 748.5C1983.77 748.5 1900.5 831.775 1900.5 934.5 1900.5 1037.23 1983.77 1120.5 2086.5 1120.5 2189.23 1120.5 2272.5 1037.23 2272.5 934.5 2272.5 831.775 2189.23 748.5 2086.5 748.5Z" stroke="#000000" stroke-width="49.2708" stroke-miterlimit="8" fill-rule="evenodd"/><path d="M2458.5 1538.5 2435.28 1538.5 2435.28 1358.31C2434.73 1333.62 2423.11 1310.49 2403.65 1295.32 2352.73 1256.2 2294.43 1227.8 2232.27 1211.84 2185.2 1197.33 2136.25 1189.89 2087 1189.75 2037.77 1190.61 1988.87 1198.03 1941.6 1211.84 1880.09 1229.88 1822.05 1258.18 1769.93 1295.54 1750.66 1310.72 1739.2 1333.76 1738.72 1358.31L1738.72 1538.5 1715.5 1538.5 1715.5 1358.31C1716.08 1326.56 1730.9 1296.75 1755.85 1277.16 1810.32 1238.01 1871.01 1208.36 1935.35 1189.48 1984.65 1175.1 2035.65 1167.37 2087 1166.5 2138.45 1166.63 2189.61 1174.38 2238.79 1189.51 2303.92 1206.31 2364.96 1236.15 2418.25 1277.23 2443.16 1296.82 2457.94 1326.6 2458.5 1358.31Z" stroke="#000000" stroke-width="49.2708" stroke-miterlimit="8" fill-rule="evenodd"/><path d="M719.479 1664.35 719.479 1394.06 965.933 1213.87 1269.26 1138 1458.84 1166.45 1681.6 1232.84 1819.04 1370.35 1838 1726 710 1726 719.479 1664.35Z" fill="#FFFFFF" fill-rule="evenodd"/><path d="M975.5 761C975.5 600.561 1105.56 470.5 1266 470.5 1426.44 470.5 1556.5 600.561 1556.5 761 1556.5 921.439 1426.44 1051.5 1266 1051.5 1105.56 1051.5 975.5 921.439 975.5 761Z" stroke="#2F528F" stroke-width="4.58333" stroke-miterlimit="8" fill="#FFFFFF" fill-rule="evenodd"/><path d="M1270 506.813C1410.38 506.813 1524.19 620.616 1524.19 761 1524.19 901.384 1410.38 1015.19 1270 1015.19 1129.62 1015.19 1015.81 901.384 1015.81 761 1015.95 620.674 1129.67 506.952 1270 506.813M1270 470.5C1109.56 470.5 979.5 600.561 979.5 761 979.5 921.439 1109.56 1051.5 1270 1051.5 1430.44 1051.5 1560.5 921.439 1560.5 761 1560.5 600.561 1430.44 470.5 1270 470.5Z" stroke="#000000" stroke-width="49.2708" stroke-miterlimit="8" fill-rule="evenodd"/><path d="M1851.5 1705.5 1815.16 1705.5 1815.16 1424.08C1814.29 1385.51 1796.11 1349.38 1765.64 1325.69 1685.94 1264.59 1594.69 1220.24 1497.38 1195.31 1423.71 1172.66 1347.08 1161.03 1270 1160.81 1192.94 1162.15 1116.4 1173.75 1042.42 1195.31 946.124 1223.49 855.278 1267.68 773.69 1326.03 743.528 1349.75 725.602 1385.74 724.844 1424.08L724.844 1705.5 688.5 1705.5 688.5 1424.08C689.401 1374.49 712.602 1327.94 751.665 1297.33 836.919 1236.18 931.91 1189.88 1032.62 1160.39 1109.79 1137.93 1189.63 1125.86 1270 1124.5 1350.54 1124.7 1430.61 1136.81 1507.6 1160.43 1609.53 1186.67 1705.09 1233.28 1788.5 1297.44 1827.48 1328.04 1850.62 1374.55 1851.5 1424.08Z" stroke="#000000" stroke-width="49.2708" stroke-miterlimit="8" fill-rule="evenodd"/><rect x="748" y="1695" width="1138" height="79.0001"/><rect x="1862" y="1540" width="602" height="79.0001"/><path d="M532 1175.5C532 621.834 980.835 173 1534.5 173 2088.17 173 2537 621.834 2537 1175.5 2537 1729.17 2088.17 2178 1534.5 2178 980.835 2178 532 1729.17 532 1175.5Z" stroke="#000000" stroke-width="80.2083" stroke-miterlimit="8" fill="none" fill-rule="evenodd"/></g></svg>